<?xml version="1.0" standalone="no"?>
<!DOCTYPE svg PUBLIC "-//W3C//DTD SVG 20010904//EN"
 "http://www.w3.org/TR/2001/REC-SVG-20010904/DTD/svg10.dtd">
<svg version="1.0" xmlns="http://www.w3.org/2000/svg"
 width="156.000000pt" height="156.000000pt" viewBox="0 0 156.000000 156.000000"
 preserveAspectRatio="xMidYMid meet">
<metadata>
Created by potrace 1.14, written by Peter Selinger 2001-2017
</metadata>
<g transform="translate(0.000000,156.000000) scale(0.100000,-0.100000)"
fill="#000000" stroke="none">
<path d="M690 1530 c-111 -24 -160 -42 -242 -91 -69 -40 -185 -147 -226 -206
-146 -212 -172 -510 -65 -743 56 -120 157 -236 278 -316 105 -70 247 -127 342
-138 l48 -6 -40 14 c-124 41 -280 139 -370 230 -141 144 -207 299 -206 484 2
179 60 321 181 443 305 306 806 207 896 -177 45 -191 -30 -361 -196 -442 -47
-23 -67 -27 -145 -27 -73 0 -98 4 -131 22 -110 58 -158 135 -158 253 -1 55 4
84 18 110 83 154 296 170 375 29 61 -108 11 -229 -105 -259 l-39 -9 48 4 c26
2 59 11 75 20 45 27 83 89 89 148 11 110 -38 197 -139 246 -55 26 -72 30 -134
27 -272 -12 -402 -326 -236 -569 61 -87 153 -146 260 -165 305 -55 578 167
595 482 13 244 -116 467 -335 581 -121 63 -295 85 -438 55z"/>
</g>
</svg>
